<mxfile host="app.diagrams.net" modified="2023-09-07T13:03:57.010Z" agent="Mozilla/5.0 (X11; Linux x86_64) AppleWebKit/537.36 (KHTML, like Gecko) Chrome/115.0.0.0 Safari/537.36" etag="piKm-xBRVolp4pozwSuK" version="21.7.2" type="device">
  <diagram name="Page-1" id="net3LYrIIeCwL5Gls6FQ">
    <mxGraphModel dx="1434" dy="758" grid="1" gridSize="10" guides="1" tooltips="1" connect="1" arrows="1" fold="1" page="1" pageScale="1" pageWidth="850" pageHeight="1100" math="0" shadow="0">
      <root>
        <mxCell id="0" />
        <mxCell id="1" parent="0" />
        <mxCell id="6gkh3FY1J6M-NQaSy6XT-10" value="" style="shape=flexArrow;endArrow=classic;html=1;rounded=0;fontFamily=Helvetica;fontSize=12;fontColor=default;strokeWidth=1;endSize=6;startSize=6;width=20;exitX=0.708;exitY=0;exitDx=0;exitDy=0;exitPerimeter=0;" parent="1" edge="1">
          <mxGeometry width="50" height="50" relative="1" as="geometry">
            <mxPoint x="425.00000000000006" y="400" as="sourcePoint" />
            <mxPoint x="425.04" y="280" as="targetPoint" />
          </mxGeometry>
        </mxCell>
        <mxCell id="6gkh3FY1J6M-NQaSy6XT-11" value="&lt;font style=&quot;font-size: 14px;&quot;&gt;Request&lt;/font&gt;" style="edgeLabel;html=1;align=center;verticalAlign=middle;resizable=0;points=[];fontSize=14;fontFamily=Helvetica;fontColor=default;rotation=-90;" parent="6gkh3FY1J6M-NQaSy6XT-10" vertex="1" connectable="0">
          <mxGeometry x="-0.1091" y="-2" relative="1" as="geometry">
            <mxPoint x="-2" y="-6" as="offset" />
          </mxGeometry>
        </mxCell>
        <mxCell id="6gkh3FY1J6M-NQaSy6XT-14" value="" style="shape=flexArrow;endArrow=classic;html=1;rounded=0;fontFamily=Helvetica;fontSize=12;fontColor=default;strokeWidth=1;endSize=6;startSize=6;width=20;" parent="1" edge="1">
          <mxGeometry width="50" height="50" relative="1" as="geometry">
            <mxPoint x="380" y="280" as="sourcePoint" />
            <mxPoint x="380" y="400" as="targetPoint" />
          </mxGeometry>
        </mxCell>
        <mxCell id="6gkh3FY1J6M-NQaSy6XT-15" value="Texto&lt;br style=&quot;font-size: 14px;&quot;&gt;" style="edgeLabel;html=1;align=center;verticalAlign=middle;resizable=0;points=[];fontSize=14;fontFamily=Helvetica;fontColor=default;rotation=-90;" parent="6gkh3FY1J6M-NQaSy6XT-14" vertex="1" connectable="0">
          <mxGeometry x="-0.1091" y="-2" relative="1" as="geometry">
            <mxPoint x="2" y="-4" as="offset" />
          </mxGeometry>
        </mxCell>
        <mxCell id="DF99NF1wN35QQG4V0i3f-5" value="&lt;font style=&quot;font-size: 15px;&quot;&gt;Controle Central&lt;/font&gt;" style="whiteSpace=wrap;html=1;aspect=fixed;strokeColor=default;fontFamily=Helvetica;fontSize=12;fontColor=default;fillColor=default;" parent="1" vertex="1">
          <mxGeometry x="360" y="400" width="90" height="90" as="geometry" />
        </mxCell>
        <mxCell id="DF99NF1wN35QQG4V0i3f-7" value="&lt;font style=&quot;font-size: 15px;&quot;&gt;Audio Module&lt;br&gt;&lt;br&gt;&lt;/font&gt;" style="whiteSpace=wrap;html=1;aspect=fixed;strokeColor=default;fontFamily=Helvetica;fontSize=12;fontColor=default;fillColor=default;" parent="1" vertex="1">
          <mxGeometry x="360" y="190" width="90" height="90" as="geometry" />
        </mxCell>
        <mxCell id="DF99NF1wN35QQG4V0i3f-8" value="&lt;font style=&quot;font-size: 15px;&quot;&gt;Rede Neural&lt;/font&gt;" style="whiteSpace=wrap;html=1;aspect=fixed;strokeColor=default;fontFamily=Helvetica;fontSize=12;fontColor=default;fillColor=default;" parent="1" vertex="1">
          <mxGeometry x="150" y="400" width="90" height="90" as="geometry" />
        </mxCell>
        <mxCell id="DF99NF1wN35QQG4V0i3f-9" value="" style="shape=flexArrow;endArrow=classic;html=1;rounded=0;fontFamily=Helvetica;fontSize=12;fontColor=default;strokeWidth=1;endSize=6;startSize=6;width=20;" parent="1" edge="1">
          <mxGeometry width="50" height="50" relative="1" as="geometry">
            <mxPoint x="360" y="420" as="sourcePoint" />
            <mxPoint x="240" y="420" as="targetPoint" />
          </mxGeometry>
        </mxCell>
        <mxCell id="DF99NF1wN35QQG4V0i3f-10" value="Texto&lt;br style=&quot;font-size: 14px;&quot;&gt;" style="edgeLabel;html=1;align=center;verticalAlign=middle;resizable=0;points=[];fontSize=14;fontFamily=Helvetica;fontColor=default;rotation=0;" parent="DF99NF1wN35QQG4V0i3f-9" vertex="1" connectable="0">
          <mxGeometry x="-0.1091" y="-2" relative="1" as="geometry">
            <mxPoint x="-7" y="2" as="offset" />
          </mxGeometry>
        </mxCell>
        <mxCell id="DF99NF1wN35QQG4V0i3f-11" value="&lt;span style=&quot;color: rgb(0, 0, 0); font-family: Helvetica; font-size: 14px; font-style: normal; font-variant-ligatures: normal; font-variant-caps: normal; font-weight: 400; letter-spacing: normal; orphans: 2; text-align: center; text-indent: 0px; text-transform: none; widows: 2; word-spacing: 0px; -webkit-text-stroke-width: 0px; background-color: rgb(255, 255, 255); text-decoration-thickness: initial; text-decoration-style: initial; text-decoration-color: initial; float: none; display: inline !important;&quot;&gt;Classe&lt;/span&gt;" style="shape=flexArrow;endArrow=classic;html=1;rounded=0;fontFamily=Helvetica;fontSize=12;fontColor=default;strokeWidth=1;endSize=6;startSize=6;width=20;" parent="1" edge="1">
          <mxGeometry width="50" height="50" relative="1" as="geometry">
            <mxPoint x="240" y="470" as="sourcePoint" />
            <mxPoint x="360" y="470" as="targetPoint" />
          </mxGeometry>
        </mxCell>
        <mxCell id="DF99NF1wN35QQG4V0i3f-14" value="&lt;span style=&quot;color: rgb(0, 0, 0); font-family: Helvetica; font-size: 14px; font-style: normal; font-variant-ligatures: normal; font-variant-caps: normal; font-weight: 400; letter-spacing: normal; orphans: 2; text-align: center; text-indent: 0px; text-transform: none; widows: 2; word-spacing: 0px; -webkit-text-stroke-width: 0px; background-color: rgb(255, 255, 255); text-decoration-thickness: initial; text-decoration-style: initial; text-decoration-color: initial; float: none; display: inline !important;&quot;&gt;Classe&lt;/span&gt;" style="shape=flexArrow;endArrow=classic;html=1;rounded=0;fontFamily=Helvetica;fontSize=12;fontColor=default;strokeWidth=1;endSize=6;startSize=6;width=20;" parent="1" edge="1">
          <mxGeometry x="-0.1667" y="-1" width="50" height="50" relative="1" as="geometry">
            <mxPoint x="450" y="419.43" as="sourcePoint" />
            <mxPoint x="570" y="419.43" as="targetPoint" />
            <mxPoint as="offset" />
          </mxGeometry>
        </mxCell>
        <mxCell id="DF99NF1wN35QQG4V0i3f-15" value="" style="shape=flexArrow;endArrow=classic;html=1;rounded=0;fontFamily=Helvetica;fontSize=12;fontColor=default;strokeWidth=1;endSize=6;startSize=6;width=20;" parent="1" edge="1">
          <mxGeometry width="50" height="50" relative="1" as="geometry">
            <mxPoint x="570" y="470" as="sourcePoint" />
            <mxPoint x="450" y="470" as="targetPoint" />
          </mxGeometry>
        </mxCell>
        <mxCell id="DF99NF1wN35QQG4V0i3f-16" value="Direções" style="edgeLabel;html=1;align=center;verticalAlign=middle;resizable=0;points=[];fontSize=14;fontFamily=Helvetica;fontColor=default;rotation=0;" parent="DF99NF1wN35QQG4V0i3f-15" vertex="1" connectable="0">
          <mxGeometry x="-0.1091" y="-2" relative="1" as="geometry">
            <mxPoint x="-7" y="2" as="offset" />
          </mxGeometry>
        </mxCell>
        <mxCell id="DF99NF1wN35QQG4V0i3f-17" value="&lt;font style=&quot;font-size: 15px;&quot;&gt;CNN&lt;br&gt;&lt;/font&gt;" style="whiteSpace=wrap;html=1;aspect=fixed;strokeColor=default;fontFamily=Helvetica;fontSize=12;fontColor=default;fillColor=default;" parent="1" vertex="1">
          <mxGeometry x="570" y="400" width="90" height="90" as="geometry" />
        </mxCell>
        <mxCell id="DF99NF1wN35QQG4V0i3f-19" value="&lt;font style=&quot;font-size: 15px;&quot;&gt;Controle Central&lt;/font&gt;" style="whiteSpace=wrap;html=1;aspect=fixed;strokeColor=default;fontFamily=Helvetica;fontSize=12;fontColor=default;fillColor=default;" parent="1" vertex="1">
          <mxGeometry x="360" y="610" width="90" height="90" as="geometry" />
        </mxCell>
        <mxCell id="DF99NF1wN35QQG4V0i3f-20" value="" style="shape=flexArrow;endArrow=classic;html=1;rounded=0;fontFamily=Helvetica;fontSize=12;fontColor=default;strokeWidth=1;endSize=6;startSize=6;width=20;" parent="1" edge="1">
          <mxGeometry width="50" height="50" relative="1" as="geometry">
            <mxPoint x="404.71" y="490" as="sourcePoint" />
            <mxPoint x="404.71" y="610" as="targetPoint" />
          </mxGeometry>
        </mxCell>
        <mxCell id="DF99NF1wN35QQG4V0i3f-21" value="Direções&lt;br&gt;" style="edgeLabel;html=1;align=center;verticalAlign=middle;resizable=0;points=[];fontSize=14;fontFamily=Helvetica;fontColor=default;rotation=-90;" parent="DF99NF1wN35QQG4V0i3f-20" vertex="1" connectable="0">
          <mxGeometry x="-0.1091" y="-2" relative="1" as="geometry">
            <mxPoint x="2" y="-4" as="offset" />
          </mxGeometry>
        </mxCell>
      </root>
    </mxGraphModel>
  </diagram>
</mxfile>
